<?xml version="1.0" encoding="UTF-8" standalone="no"?>
<svg
   width="403.82742"
   zoomAndPan="magnify"
   viewBox="0 0 302.87057 65.437498"
   height="87.25"
   preserveAspectRatio="xMidYMid"
   version="1.0"
   id="svg75"
   sodipodi:docname="header.svg"
   inkscape:version="1.4 (86a8ad7, 2024-10-11)"
   inkscape:export-filename="header.svg"
   inkscape:export-xdpi="96"
   inkscape:export-ydpi="96"
   xmlns:inkscape="http://www.inkscape.org/namespaces/inkscape"
   xmlns:sodipodi="http://sodipodi.sourceforge.net/DTD/sodipodi-0.dtd"
   xmlns="http://www.w3.org/2000/svg"
   xmlns:svg="http://www.w3.org/2000/svg">
  <sodipodi:namedview
     id="namedview75"
     pagecolor="#ffffff"
     bordercolor="#000000"
     borderopacity="0.25"
     inkscape:showpageshadow="2"
     inkscape:pageopacity="0.0"
     inkscape:pagecheckerboard="0"
     inkscape:deskcolor="#d1d1d1"
     inkscape:zoom="9.336"
     inkscape:cx="97.150814"
     inkscape:cy="267.61997"
     inkscape:window-width="2560"
     inkscape:window-height="1369"
     inkscape:window-x="1912"
     inkscape:window-y="-8"
     inkscape:window-maximized="1"
     inkscape:current-layer="svg75">
    <inkscape:page
       x="0"
       y="0"
       width="302.87057"
       height="65.4375"
       id="page2"
       margin="0"
       bleed="0" />
  </sodipodi:namedview>
  <defs
     id="defs15">
    <clipPath
       id="d0139ae435">
      <path
         d="m 40,218 h 26 v 6.79687 H 40 Z m 0,0"
         clip-rule="nonzero"
         id="path10" />
    </clipPath>
    <clipPath
       id="5c2bed1f69">
      <path
         d="M 37.5,200.79687 H 69 V 218 H 37.5 Z m 0,0"
         clip-rule="nonzero"
         id="path11" />
    </clipPath>
    <clipPath
       id="a2fdf6e97d">
      <path
         d="M 72.285156,179 H 83 v 7 H 72.285156 Z m 0,0"
         clip-rule="nonzero"
         id="path12" />
    </clipPath>
    <clipPath
       id="463bcdfb1b">
      <path
         d="M 72.285156,171 H 84 v 8 H 72.285156 Z m 0,0"
         clip-rule="nonzero"
         id="path13" />
    </clipPath>
    <clipPath
       id="0c3febe49c">
      <path
         d="m 84,169 h 19.78516 v 24.91797 H 84 Z m 0,0"
         clip-rule="nonzero"
         id="path14" />
    </clipPath>
    <clipPath
       id="b1da1cf3e3">
      <path
         d="M 72.285156,163.91797 H 95 V 171 H 72.285156 Z m 0,0"
         clip-rule="nonzero"
         id="path15" />
    </clipPath>
  </defs>
  <path
     d="M 7.8160484e-7,-9.2805664e-6 V 31.328611 H 31.328612 V -9.2805664e-6 Z M 9.0234378,4.0942307 l 6.8364252,7.5146503 7.511718,-6.8349603 3.867188,4.25391 -7.511719,6.8349603 6.832031,7.51172 -4.250976,3.86718 -6.834961,-7.51172 -7.5161122,6.83643 -3.867188,-4.25391 7.5161122,-6.83642 -6.8364242,-7.5117203 z"
     style="fill:#4caf50"
     id="path77" />
  <path
     d="m 34.785644,34.108881 v 31.32861 H 66.11279 v -31.32861 z m 15.663574,4.19531 c 0.457031,0 0.902342,0.0864 1.324218,0.26221 0.425781,0.17578 0.800781,0.42627 1.125,0.75439 0.328124,0.32422 0.578613,0.69922 0.754395,1.125 0.175781,0.42188 0.260742,0.86719 0.260742,1.32422 0,0.46094 -0.08496,0.90137 -0.260742,1.32715 -0.175782,0.42578 -0.426271,0.80078 -0.754395,1.125 -0.324219,0.32422 -0.699219,0.57862 -1.125,0.7544 -0.421876,0.17578 -0.867187,0.2622 -1.324218,0.2622 -0.460938,0 -0.902833,-0.0864 -1.328614,-0.2622 -0.425782,-0.17578 -0.800782,-0.43018 -1.125,-0.7544 -0.324219,-0.32422 -0.577148,-0.69922 -0.752929,-1.125 -0.175782,-0.42578 -0.262207,-0.86621 -0.262207,-1.32715 0,-0.45703 0.08642,-0.90234 0.262207,-1.32422 0.175781,-0.42578 0.42871,-0.80078 0.752929,-1.125 0.324218,-0.32812 0.699218,-0.57861 1.125,-0.75439 0.425781,-0.17578 0.867676,-0.26221 1.328614,-0.26221 z m -8.95752,8.59864 h 17.910645 c 0.140625,0 0.269531,0.0268 0.398437,0.0776 0.125,0.0508 0.237792,0.12891 0.335449,0.22266 0.09375,0.0977 0.16797,0.21045 0.222657,0.33545 0.05078,0.1289 0.0791,0.25879 0.0791,0.39551 v 3.67089 c 0,0.13672 -0.02832,0.27051 -0.0791,0.39551 -0.05469,0.12891 -0.128907,0.2378 -0.222657,0.33545 -0.09766,0.0977 -0.210449,0.17188 -0.335449,0.22266 -0.128906,0.0547 -0.257812,0.082 -0.398437,0.082 H 41.491698 c -0.136719,0 -0.269531,-0.0273 -0.398437,-0.082 -0.125,-0.0508 -0.237305,-0.125 -0.331055,-0.22266 -0.09766,-0.0977 -0.172363,-0.20654 -0.227051,-0.33545 -0.05078,-0.125 -0.07764,-0.25879 -0.07764,-0.39551 v -3.67089 c 0,-0.13672 0.02685,-0.26661 0.07764,-0.39551 0.05469,-0.125 0.129394,-0.23779 0.227051,-0.33545 0.09375,-0.0937 0.206055,-0.17188 0.331055,-0.22266 0.128906,-0.0508 0.261718,-0.0776 0.398437,-0.0776 z m 8.95752,7.39746 c 0.457031,0 0.902342,0.0908 1.324218,0.2666 0.425781,0.17578 0.800781,0.42578 1.125,0.75 0.328124,0.32812 0.578613,0.70312 0.754395,1.125 0.175781,0.42578 0.260742,0.86621 0.260742,1.32715 0,0.46093 -0.08496,0.90283 -0.260742,1.32861 -0.175782,0.42578 -0.426271,0.80078 -0.754395,1.125 -0.324219,0.32422 -0.699219,0.57422 -1.125,0.75 -0.421876,0.17578 -0.867187,0.26514 -1.324218,0.26514 -0.460938,0 -0.902833,-0.0894 -1.328614,-0.26514 -0.425782,-0.17578 -0.800782,-0.42578 -1.125,-0.75 -0.324219,-0.32422 -0.577148,-0.69922 -0.752929,-1.125 -0.175782,-0.42578 -0.262207,-0.86768 -0.262207,-1.32861 0,-0.46094 0.08642,-0.90137 0.262207,-1.32715 0.175781,-0.42188 0.42871,-0.79688 0.752929,-1.125 0.324218,-0.32422 0.699218,-0.57422 1.125,-0.75 0.425781,-0.17578 0.867676,-0.2666 1.328614,-0.2666 z"
     style="fill:#4caf50"
     id="path78" />
  <g
     clip-path="url(#d0139ae435)"
     id="g25"
     transform="translate(-37.5,-163.25391)">
    <path
       fill="#4caf50"
       d="m 65.660156,224.46094 -12.5,-1.87891 -12.496094,1.87891 c -0.214843,0.0312 -0.359374,-0.23828 -0.230468,-0.42969 l 0.660156,-0.97266 c 0.03906,-0.0547 0.09375,-0.0898 0.15625,-0.10156 l 10.195312,-2.02734 v -2.5 h 0.839844 V 219.5 c 0,0.53125 0.390625,0.96484 0.875,0.96484 0.484375,0 0.878906,-0.43359 0.878906,-0.96484 v -1.07031 h 0.839844 v 2.5 l 10.195313,2.02734 c 0.0625,0.0117 0.117187,0.0469 0.152343,0.10156 l 0.664063,0.97266 c 0.128906,0.19141 -0.01563,0.46094 -0.230469,0.42969"
       fill-opacity="1"
       fill-rule="nonzero"
       id="path25" />
  </g>
  <g
     clip-path="url(#5c2bed1f69)"
     id="g26"
     transform="translate(-37.5,-163.25391)">
    <path
       fill="#4caf50"
       d="M 67.851562,215.94922 H 38.472656 v -14.08985 h 29.378906 z m -13.238281,1.23437 c -0.05078,0.0508 -0.117187,0.0859 -0.191406,0.0859 h -2.519531 c -0.148438,0 -0.265625,-0.13281 -0.265625,-0.29687 0,-0.082 0.02734,-0.15625 0.07813,-0.20704 0.04687,-0.0547 0.113281,-0.0859 0.1875,-0.0859 h 2.519531 c 0.148437,0 0.269531,0.1289 0.269531,0.29297 0,0.082 -0.03125,0.15625 -0.07813,0.21093 z M 68.046875,200.79687 H 38.277344 c -0.425782,0 -0.769532,0.38282 -0.769532,0.84766 v 15.42578 c 0,0.46485 0.34375,0.84766 0.769532,0.84766 h 29.769531 c 0.425781,0 0.769531,-0.38281 0.769531,-0.84766 v -15.42578 c 0,-0.46484 -0.34375,-0.84766 -0.769531,-0.84766"
       fill-opacity="1"
       fill-rule="nonzero"
       id="path26" />
  </g>
  <g
     clip-path="url(#a2fdf6e97d)"
     id="g27"
     transform="translate(-37.5,-163.25391)">
    <path
       fill="#4caf50"
       d="m 82.917969,185.89453 v -1.57812 c 0,-0.0195 0,-0.0352 0,-0.0547 0,-0.0195 0,-0.043 0,-0.0625 v -4.86719 h -9.570313 c -0.585937,0 -1.058594,0.47266 -1.058594,1.05859 v 5.29297 c 0,0.11719 0.09375,0.21094 0.210938,0.21094 z m -4.429688,-4.375 c 0.601563,0 1.085938,0.48438 1.085938,1.08203 0,0.59766 -0.484375,1.08594 -1.085938,1.08594 -0.597656,0 -1.082031,-0.48828 -1.082031,-1.08594 0,-0.59765 0.484375,-1.08203 1.082031,-1.08203 z m -3.140625,0 c 0.597656,0 1.082032,0.48438 1.082032,1.08203 0,0.59766 -0.484376,1.08594 -1.082032,1.08594 -0.597656,0 -1.085937,-0.48828 -1.085937,-1.08594 0,-0.59765 0.484375,-1.08203 1.085937,-1.08203 z m 0,0"
       fill-opacity="1"
       fill-rule="nonzero"
       id="path27" />
  </g>
  <g
     clip-path="url(#463bcdfb1b)"
     id="g28"
     transform="translate(-37.5,-163.25391)">
    <path
       fill="#4caf50"
       d="m 73.347656,171.625 c -0.585937,0 -1.058594,0.47266 -1.058594,1.05859 v 5.29297 c 0,0.11719 0.09375,0.21094 0.210938,0.21094 h 10.417969 v -4.53906 c 0,-0.0195 0,-0.0352 0,-0.0547 0,-0.0195 0,-0.043 0,-0.0625 0,-0.66016 0.175781,-1.30859 0.515625,-1.90625 z m 2,4.35547 c -0.601562,0 -1.085937,-0.48438 -1.085937,-1.08594 0,-0.59766 0.488281,-1.08203 1.085937,-1.08203 0.597656,0 1.082032,0.48437 1.082032,1.08203 0,0.60156 -0.484376,1.08594 -1.082032,1.08594 z m 3.140625,0 c -0.597656,0 -1.082031,-0.48438 -1.082031,-1.08594 0,-0.59766 0.484375,-1.08203 1.082031,-1.08203 0.601563,0 1.085938,0.48437 1.085938,1.08203 0,0.60156 -0.484375,1.08594 -1.085938,1.08594 z m 0,0"
       fill-opacity="1"
       fill-rule="nonzero"
       id="path28" />
  </g>
  <g
     clip-path="url(#0c3febe49c)"
     id="g29"
     transform="translate(-37.5,-163.25391)">
    <path
       fill="#4caf50"
       d="m 85.5,191.62891 c 0.519531,0.46875 1.246094,0.88671 2.15625,1.23046 1.769531,0.67579 4.101562,1.04688 6.574219,1.04688 2.46875,0 4.804687,-0.37109 6.570311,-1.04688 0.91016,-0.34375 1.63672,-0.76171 2.16016,-1.23046 0.79687,-0.71875 0.96484,-1.44141 0.96484,-1.92188 v -5.39062 c 0,-0.0156 0,-0.0312 0,-0.0469 0,-0.0234 0,-0.0469 0,-0.0703 v -10.55078 c 0,-0.0156 0,-0.0312 0,-0.0469 0,-0.0234 0,-0.0469 0,-0.0703 0,-0.47656 -0.16797,-1.19922 -0.96484,-1.91797 -0.52344,-0.47266 -1.25,-0.88672 -2.16016,-1.23437 -1.765624,-0.67579 -4.101561,-1.04688 -6.570311,-1.04688 -2.472657,0 -4.804688,0.37109 -6.574219,1.04688 -0.910156,0.34765 -1.636719,0.76171 -2.15625,1.23437 -0.800781,0.71875 -0.96875,1.44141 -0.96875,1.91797 0,0.0234 0,0.0469 0.0039,0.0703 -0.0039,0.0156 -0.0039,0.0312 -0.0039,0.0469 v 10.55078 c 0,0.0234 0.0039,0.0469 0.0039,0.0703 -0.0039,0.0156 -0.0039,0.0312 -0.0039,0.0469 v 5.39062 c 0,0.48047 0.167969,1.20313 0.96875,1.92188 z m 2.730469,-19.73829 c 1.589843,-0.60546 3.722656,-0.9414 6,-0.9414 2.277343,0 4.40625,0.33594 5.996091,0.9414 1.26563,0.48047 2.08203,1.125 2.08203,1.64063 0,0.51562 -0.8164,1.16016 -2.08203,1.64062 -1.589841,0.60938 -3.718748,0.94141 -5.996091,0.94141 -2.277344,0 -4.410157,-0.33203 -6,-0.94141 -1.261719,-0.48046 -2.082031,-1.125 -2.082031,-1.64062 0,-0.51563 0.820312,-1.16016 2.082031,-1.64063 z m -2.082031,6.91797 v -2.86718 c 0.425781,0.27343 0.929687,0.52343 1.507812,0.74218 1.769531,0.67578 4.101562,1.04688 6.574219,1.04688 2.46875,0 4.804687,-0.3711 6.570311,-1.04688 0.58203,-0.21875 1.08594,-0.46875 1.50781,-0.74218 v 3.09765 c 0,0.51563 -0.8164,1.16016 -2.08203,1.64453 -1.589841,0.60547 -3.718748,0.9375 -5.996091,0.9375 -2.277344,0 -4.410157,-0.33203 -6,-0.9375 -1.261719,-0.48437 -2.082031,-1.1289 -2.082031,-1.64453 z m 0,2.64453 c 0.425781,0.26954 0.929687,0.51954 1.507812,0.73829 1.769531,0.67578 4.101562,1.04687 6.574219,1.04687 2.46875,0 4.804687,-0.37109 6.570311,-1.04687 0.58203,-0.21875 1.08594,-0.46875 1.50781,-0.73829 v 2.7461 c 0,0.51562 -0.8164,1.16015 -2.08203,1.64062 -1.589841,0.60938 -3.718748,0.94141 -5.996091,0.94141 -2.277344,0 -4.410157,-0.33203 -6,-0.94141 -1.261719,-0.48047 -2.082031,-1.125 -2.082031,-1.64062 z m 0,5.15625 c 0.425781,0.27344 0.929687,0.52344 1.507812,0.74219 1.769531,0.67578 4.101562,1.04688 6.574219,1.04688 2.46875,0 4.804687,-0.3711 6.570311,-1.04688 0.58203,-0.21875 1.08594,-0.46875 1.50781,-0.74219 v 3.09766 c 0,0.51563 -0.8164,1.16016 -2.08203,1.64453 -1.589841,0.60547 -3.718748,0.9375 -5.996091,0.9375 -2.277344,0 -4.410157,-0.33203 -6,-0.9375 -1.261719,-0.48437 -2.082031,-1.1289 -2.082031,-1.64453 z m 0,0"
       fill-opacity="1"
       fill-rule="nonzero"
       id="path29" />
  </g>
  <g
     clip-path="url(#b1da1cf3e3)"
     id="g30"
     transform="translate(-37.5,-163.25391)">
    <path
       fill="#4caf50"
       d="m 85.054688,169.33594 c -0.117188,0 -0.214844,-0.0977 -0.214844,-0.21485 v -3.48047 c 0,-0.11718 0.09766,-0.21484 0.214844,-0.21484 h 7.730468 c 0.117188,0 0.210938,0.0977 0.210938,0.21484 v 2.10547 c 0.40625,-0.0195 0.820312,-0.0312 1.234375,-0.0312 v -2.73828 c 0,-0.58594 -0.476563,-1.05859 -1.058594,-1.05859 H 73.347656 c -0.585937,0 -1.058594,0.47265 -1.058594,1.05859 v 5.29297 c 0,0.11719 0.09375,0.21094 0.210938,0.21094 h 11.839844 c 0.02344,-0.0234 0.05078,-0.0469 0.07422,-0.0703 0.441407,-0.39454 0.980469,-0.75782 1.609376,-1.07422 z m -9.707032,-1.0625 c -0.601562,0 -1.085937,-0.48438 -1.085937,-1.08203 0,-0.60157 0.488281,-1.08594 1.085937,-1.08594 0.597656,0 1.082032,0.48437 1.082032,1.08594 0,0.59765 -0.484376,1.08203 -1.082032,1.08203 z m 3.140625,0 c -0.597656,0 -1.082031,-0.48438 -1.082031,-1.08203 0,-0.60157 0.484375,-1.08594 1.082031,-1.08594 0.601563,0 1.085938,0.48437 1.085938,1.08594 0,0.59765 -0.484375,1.08203 -1.085938,1.08203 z m 0,0"
       fill-opacity="1"
       fill-rule="nonzero"
       id="path30" />
  </g>
  <g
     fill="#4caf50"
     fill-opacity="1"
     id="g33"
     transform="translate(-37.5,-163.25391)">
    <g
       transform="translate(111.49002,213.56601)"
       id="g32">
      <g
         id="g31">
        <path
           d="m 16.15625,-4.375 c 0.613281,0 0.921875,0.398438 0.921875,1.1875 0,0.792969 -0.01172,1.386719 -0.03125,1.78125 -0.09375,0.886719 -0.492187,1.390625 -1.1875,1.515625 C 13.660156,0.429688 12.03125,0.59375 10.96875,0.59375 7.289062,0.59375 4.757812,-0.441406 3.375,-2.515625 1.988281,-4.597656 1.296875,-8.34375 1.296875,-13.75 c 0,-3.957031 0.300781,-6.976562 0.90625,-9.0625 0.601563,-2.082031 1.578125,-3.546875 2.921875,-4.390625 1.351562,-0.84375 3.367188,-1.265625 6.046875,-1.265625 2.6875,0 4.644531,0.421875 5.875,1.265625 0.25,0.179687 0.375,0.390625 0.375,0.640625 0,0.242188 -0.121094,0.699219 -0.359375,1.375 -0.230469,0.679688 -0.453125,1.164062 -0.671875,1.453125 -0.210937,0.28125 -0.421875,0.421875 -0.640625,0.421875 -0.21875,0 -0.390625,-0.0078 -0.515625,-0.03125 -1.855469,-0.375 -3.460937,-0.5625 -4.8125,-0.5625 -1.34375,0 -2.21875,0.746094 -2.625,2.234375 -0.40625,1.480469 -0.609375,3.882813 -0.609375,7.203125 0,3.324219 0.082031,5.640625 0.25,6.953125 0.175781,1.304687 0.5,2.214844 0.96875,2.734375 C 8.882812,-4.257812 9.632812,-4 10.65625,-4 c 1.019531,0 2.175781,-0.0625 3.46875,-0.1875 1.300781,-0.125 1.976562,-0.1875 2.03125,-0.1875 z m 0,0"
           id="path31" />
      </g>
    </g>
  </g>
  <g
     fill="#4caf50"
     fill-opacity="1"
     id="g36"
     transform="translate(-37.5,-163.25391)">
    <g
       transform="translate(129.94177,213.56601)"
       id="g35">
      <g
         id="g34">
        <path
           d="m 10.15625,-1.15625 c -1.28125,1.1640625 -2.429688,1.75 -3.4375,1.75 -1,0 -1.808594,-0.070312 -2.421875,-0.203125 C 3.679688,0.253906 3.125,-0.0390625 2.625,-0.5 2.132812,-0.957031 1.789062,-1.617188 1.59375,-2.484375 1.394531,-3.347656 1.296875,-4.5 1.296875,-5.9375 c 0,-2 0.972656,-3.367188 2.921875,-4.109375 l 5.3125,-1.375 C 9.5,-13.023438 9.332031,-14.0625 9.03125,-14.53125 8.738281,-15 8.097656,-15.234375 7.109375,-15.234375 c -0.980469,0 -1.828125,0.164063 -2.546875,0.484375 l -1.296875,0.515625 H 3.21875 C 3,-14.109375 2.800781,-14.207031 2.625,-14.53125 c -0.4375,-0.9375 -0.65625,-1.671875 -0.65625,-2.203125 0,-0.53125 0.039062,-0.828125 0.125,-0.890625 0.082031,-0.0625 0.125,-0.101562 0.125,-0.125 1.238281,-0.8125 2.835938,-1.21875 4.796875,-1.21875 1.96875,0 3.484375,0.261719 4.546875,0.78125 1.0625,0.511719 1.832031,1.453125 2.3125,2.828125 0.488281,1.367187 0.734375,3.398437 0.734375,6.09375 L 14.53125,0 c 0,0.144531 -0.02734,0.242188 -0.07813,0.296875 C 14.35937,0.492188 13.89062,0.59375 13.04687,0.59375 11.515625,0.59375 10.75,0.394531 10.75,0 Z m -4.75,-4.703125 c 0,1.78125 0.519531,2.71875 1.5625,2.8125 0.71875,0 1.238281,-0.117187 1.5625,-0.359375 0.6875,-0.46875 1.03125,-2.222656 1.03125,-5.265625 -1.28125,0.179687 -2.296875,0.53125 -3.046875,1.0625 -0.742187,0.53125 -1.109375,1.117187 -1.109375,1.75 z m 0,0"
           id="path33" />
      </g>
    </g>
  </g>
  <g
     fill="#4caf50"
     fill-opacity="1"
     id="g39"
     transform="translate(-37.5,-163.25391)">
    <g
       transform="translate(146.05926,213.56601)"
       id="g38">
      <g
         id="g37">
        <path
           d="m 6.671875,0 c 0,0.144531 -0.027344,0.242188 -0.078125,0.296875 C 6.5,0.492188 6.039062,0.59375 5.21875,0.59375 4.40625,0.59375 3.609375,0.53125 2.828125,0.40625 2.054688,0.28125 1.671875,0.144531 1.671875,0 v -27.875 c 0,-0.394531 0.429687,-0.59375 1.296875,-0.59375 0.863281,0 1.578125,0.05859 2.140625,0.171875 C 5.679688,-28.179688 5.976562,-28.039062 6,-27.875 l 0.671875,11.90625 z m 0,0"
           id="path36" />
      </g>
    </g>
  </g>
  <g
     fill="#4caf50"
     fill-opacity="1"
     id="g42"
     transform="translate(-37.5,-163.25391)">
    <g
       transform="translate(154.28474,213.56601)"
       id="g41">
      <g
         id="g40">
        <path
           d="m 13.75,-17.71875 c 0.175781,0.105469 0.265625,0.335938 0.265625,0.6875 0,0.355469 -0.08984,0.828125 -0.265625,1.421875 -0.324219,1.09375 -0.667969,1.554687 -1.03125,1.375 H 12.67188 L 11.375,-14.75 c -0.71875,-0.320312 -1.589844,-0.484375 -2.609375,-0.484375 -1.023437,0 -1.679687,0.421875 -1.96875,1.265625 -0.28125,0.835938 -0.421875,2.453125 -0.421875,4.859375 0,2.398437 0.175781,4.007813 0.53125,4.828125 0.363281,0.824219 1.050781,1.234375 2.0625,1.234375 1.457031,0 2.59375,-0.082031 3.40625,-0.25 0.820312,-0.175781 1.242188,-0.265625 1.265625,-0.265625 0.164063,-0.039062 0.304687,0.0625 0.421875,0.3125 0.113281,0.242188 0.171875,0.820312 0.171875,1.734375 0,0.917969 -0.199219,1.421875 -0.59375,1.515625 -1.53125,0.394531 -3.039063,0.59375 -4.515625,0.59375 -3,0 -5.054688,-0.707031 -6.15625,-2.125 C 1.875,-2.957031 1.328125,-5.535156 1.328125,-9.265625 c 0,-2.695313 0.238281,-4.726563 0.71875,-6.09375 0.488281,-1.375 1.265625,-2.316406 2.328125,-2.828125 1.0625,-0.519531 2.601562,-0.78125 4.625,-0.78125 2.03125,0 3.601562,0.417969 4.71875,1.25 z m 0,0"
           id="path39" />
      </g>
    </g>
  </g>
  <g
     fill="#4caf50"
     fill-opacity="1"
     id="g45"
     transform="translate(-37.5,-163.25391)">
    <g
       transform="translate(169.51299,213.56601)"
       id="g44">
      <g
         id="g43">
        <path
           d="m 6.859375,0.59375 c -1.835937,0 -3.179687,-0.5703125 -4.03125,-1.703125 -0.84375,-1.132813 -1.265625,-3.132813 -1.265625,-6 v -11.28125 c 0,-0.382813 0.445312,-0.578125 1.34375,-0.578125 0.90625,0 1.789062,0.0625 2.65625,0.1875 0.863281,0.117188 1.296875,0.246094 1.296875,0.390625 l 0.03125,11.28125 c 0,2.761719 0.195313,4.140625 0.59375,4.140625 0.894531,0 2.082031,-0.441406 3.5625,-1.328125 v -14.09375 c 0,-0.382813 0.445313,-0.578125 1.34375,-0.578125 0.90625,0 1.796875,0.0625 2.671875,0.1875 0.875,0.117188 1.3125,0.246094 1.3125,0.390625 V 0 c 0,0.144531 -0.02344,0.242188 -0.0625,0.296875 C 16.207031,0.492188 15.566406,0.59375 14.390625,0.59375 13.222656,0.59375 12.503906,0.394531 12.234375,0 l -0.78125,-1.15625 c -1.730469,1.1640625 -3.261719,1.75 -4.59375,1.75 z m 0,0"
           id="path42" />
      </g>
    </g>
  </g>
  <g
     fill="#4caf50"
     fill-opacity="1"
     id="g48"
     transform="translate(-37.5,-163.25391)">
    <g
       transform="translate(187.55717,213.56601)"
       id="g47">
      <g
         id="g46">
        <path
           d="m 6.671875,0 c 0,0.144531 -0.027344,0.242188 -0.078125,0.296875 C 6.5,0.492188 6.039062,0.59375 5.21875,0.59375 4.40625,0.59375 3.609375,0.53125 2.828125,0.40625 2.054688,0.28125 1.671875,0.144531 1.671875,0 v -27.875 c 0,-0.394531 0.429687,-0.59375 1.296875,-0.59375 0.863281,0 1.578125,0.05859 2.140625,0.171875 C 5.679688,-28.179688 5.976562,-28.039062 6,-27.875 l 0.671875,11.90625 z m 0,0"
           id="path45" />
      </g>
    </g>
  </g>
  <g
     fill="#4caf50"
     fill-opacity="1"
     id="g51"
     transform="translate(-37.5,-163.25391)">
    <g
       transform="translate(195.78265,213.56601)"
       id="g50">
      <g
         id="g49">
        <path
           d="m 10.15625,-1.15625 c -1.28125,1.1640625 -2.429688,1.75 -3.4375,1.75 -1,0 -1.808594,-0.070312 -2.421875,-0.203125 C 3.679688,0.253906 3.125,-0.0390625 2.625,-0.5 2.132812,-0.957031 1.789062,-1.617188 1.59375,-2.484375 1.394531,-3.347656 1.296875,-4.5 1.296875,-5.9375 c 0,-2 0.972656,-3.367188 2.921875,-4.109375 l 5.3125,-1.375 C 9.5,-13.023438 9.332031,-14.0625 9.03125,-14.53125 8.738281,-15 8.097656,-15.234375 7.109375,-15.234375 c -0.980469,0 -1.828125,0.164063 -2.546875,0.484375 l -1.296875,0.515625 H 3.21875 C 3,-14.109375 2.800781,-14.207031 2.625,-14.53125 c -0.4375,-0.9375 -0.65625,-1.671875 -0.65625,-2.203125 0,-0.53125 0.039062,-0.828125 0.125,-0.890625 0.082031,-0.0625 0.125,-0.101562 0.125,-0.125 1.238281,-0.8125 2.835938,-1.21875 4.796875,-1.21875 1.96875,0 3.484375,0.261719 4.546875,0.78125 1.0625,0.511719 1.832031,1.453125 2.3125,2.828125 0.488281,1.367187 0.734375,3.398437 0.734375,6.09375 L 14.53125,0 c 0,0.144531 -0.02734,0.242188 -0.07813,0.296875 C 14.35937,0.492188 13.89062,0.59375 13.04687,0.59375 11.515625,0.59375 10.75,0.394531 10.75,0 Z m -4.75,-4.703125 c 0,1.78125 0.519531,2.71875 1.5625,2.8125 0.71875,0 1.238281,-0.117187 1.5625,-0.359375 0.6875,-0.46875 1.03125,-2.222656 1.03125,-5.265625 -1.28125,0.179687 -2.296875,0.53125 -3.046875,1.0625 -0.742187,0.53125 -1.109375,1.117187 -1.109375,1.75 z m 0,0"
           id="path48" />
      </g>
    </g>
  </g>
  <g
     fill="#4caf50"
     fill-opacity="1"
     id="g54"
     transform="translate(-37.5,-163.25391)">
    <g
       transform="translate(211.90014,213.56601)"
       id="g53">
      <g
         id="g52">
        <path
           d="m 5.9375,0.59375 c -1.835938,0 -3.179688,-0.742188 -4.03125,-2.234375 -0.855469,-1.5 -1.28125,-4.101563 -1.28125,-7.8125 0,-3.707031 0.535156,-6.21875 1.609375,-7.53125 1.082031,-1.320313 3.117187,-1.984375 6.109375,-1.984375 H 10.125 V -27.875 c 0,-0.394531 0.429688,-0.59375 1.296875,-0.59375 0.863281,0 1.578125,0.05859 2.140625,0.171875 0.570312,0.117187 0.867188,0.257813 0.890625,0.421875 l 0.625,11.828125 V 0 c 0,0.144531 -0.01172,0.242188 -0.03125,0.296875 -0.125,0.195313 -0.585937,0.296875 -1.375,0.296875 -0.792969,0 -1.464844,-0.058594 -2.015625,-0.171875 C 11.101562,0.316406 10.828125,0.175781 10.828125,0 L 10.125,-1.15625 C 9.40625,-0.675781 8.894531,-0.335938 8.59375,-0.140625 7.78125,0.347656 6.894531,0.59375 5.9375,0.59375 Z m 2.40625,-16.015625 c -0.917969,0 -1.542969,0.382813 -1.875,1.140625 -0.335938,0.75 -0.5,2.023438 -0.5,3.8125 0,1.792969 0.00391,2.976562 0.015625,3.546875 0.00781,0.5625 0.03125,1.214844 0.0625,1.953125 0.039063,1.335938 0.210937,2 0.515625,2 0.882812,0 2.070312,-0.441406 3.5625,-1.328125 v -11.125 z m 0,0"
           id="path51" />
      </g>
    </g>
  </g>
  <g
     fill="#4caf50"
     fill-opacity="1"
     id="g57"
     transform="translate(-37.5,-163.25391)">
    <g
       transform="translate(228.61047,213.56601)"
       id="g56">
      <g
         id="g55">
        <path
           d="M 1.375,-9.265625 C 1.375,-11.960938 1.609375,-14 2.078125,-15.375 c 0.46875,-1.382812 1.207031,-2.328125 2.21875,-2.828125 1.007813,-0.507813 2.503906,-0.765625 4.484375,-0.765625 1.976562,0 3.472656,0.257812 4.484375,0.765625 1.007813,0.5 1.75,1.445313 2.21875,2.828125 0.476563,1.375 0.71875,3.414062 0.71875,6.109375 0,3.710937 -0.53125,6.28125 -1.59375,7.71875 -1.0625,1.429687 -3.007813,2.140625 -5.828125,2.140625 -2.8125,0 -4.75,-0.710938 -5.8125,-2.140625 C 1.90625,-2.984375 1.375,-5.554688 1.375,-9.265625 Z m 5.03125,0 c 0,4.148437 0.394531,6.21875 1.1875,6.21875 1.09375,0 1.894531,-0.171875 2.40625,-0.515625 0.28125,-0.195312 0.46875,-0.550781 0.5625,-1.0625 0.195312,-1.039062 0.296875,-2.585938 0.296875,-4.640625 0,-4.101563 -0.398437,-6.15625 -1.1875,-6.15625 -1.480469,0 -2.398437,0.34375 -2.75,1.03125 -0.34375,0.679687 -0.515625,2.386719 -0.515625,5.125 z m 0,0"
           id="path54" />
      </g>
    </g>
  </g>
  <g
     fill="#4caf50"
     fill-opacity="1"
     id="g60"
     transform="translate(-37.5,-163.25391)">
    <g
       transform="translate(246.17298,213.56601)"
       id="g59">
      <g
         id="g58">
        <path
           d="m 6,-16.90625 c 2.03125,-1.375 3.367188,-2.0625 4.015625,-2.0625 0.65625,0 1.25,0.125 1.78125,0.375 0.53125,0.242188 0.921875,0.484375 1.171875,0.734375 l 0.34375,0.328125 c -0.375,1.585938 -0.664062,2.574219 -0.859375,2.96875 -0.199219,0.398438 -0.464844,0.59375 -0.796875,0.59375 -0.335938,0 -0.761719,-0.132812 -1.28125,-0.40625 -0.523438,-0.269531 -0.992188,-0.40625 -1.40625,-0.40625 -0.417969,0 -1.257812,0.382812 -2.515625,1.140625 V 0 C 6.453125,0.144531 6.425781,0.242188 6.375,0.296875 6.269531,0.492188 5.8125,0.59375 5,0.59375 4.1875,0.59375 3.425781,0.53125 2.71875,0.40625 2.019531,0.28125 1.671875,0.144531 1.671875,0 v -18.390625 c 0,-0.382813 0.550781,-0.578125 1.65625,-0.578125 1.113281,0 1.757813,0.195312 1.9375,0.578125 v 0.07813 z m 0,0"
           id="path57" />
      </g>
    </g>
  </g>
  <g
     fill="#4caf50"
     fill-opacity="1"
     id="g63"
     transform="translate(-37.5,-163.25391)">
    <g
       transform="translate(259.80801,213.56601)"
       id="g62">
      <g
         id="g61">
        <path
           d="m 10.15625,-1.15625 c -1.28125,1.1640625 -2.429688,1.75 -3.4375,1.75 -1,0 -1.808594,-0.070312 -2.421875,-0.203125 C 3.679688,0.253906 3.125,-0.0390625 2.625,-0.5 2.132812,-0.957031 1.789062,-1.617188 1.59375,-2.484375 1.394531,-3.347656 1.296875,-4.5 1.296875,-5.9375 c 0,-2 0.972656,-3.367188 2.921875,-4.109375 l 5.3125,-1.375 C 9.5,-13.023438 9.332031,-14.0625 9.03125,-14.53125 8.738281,-15 8.097656,-15.234375 7.109375,-15.234375 c -0.980469,0 -1.828125,0.164063 -2.546875,0.484375 l -1.296875,0.515625 H 3.21875 C 3,-14.109375 2.800781,-14.207031 2.625,-14.53125 c -0.4375,-0.9375 -0.65625,-1.671875 -0.65625,-2.203125 0,-0.53125 0.039062,-0.828125 0.125,-0.890625 0.082031,-0.0625 0.125,-0.101562 0.125,-0.125 1.238281,-0.8125 2.835938,-1.21875 4.796875,-1.21875 1.96875,0 3.484375,0.261719 4.546875,0.78125 1.0625,0.511719 1.832031,1.453125 2.3125,2.828125 0.488281,1.367187 0.734375,3.398437 0.734375,6.09375 L 14.53125,0 c 0,0.144531 -0.02734,0.242188 -0.07813,0.296875 C 14.35937,0.492188 13.89062,0.59375 13.04687,0.59375 11.515625,0.59375 10.75,0.394531 10.75,0 Z m -4.75,-4.703125 c 0,1.78125 0.519531,2.71875 1.5625,2.8125 0.71875,0 1.238281,-0.117187 1.5625,-0.359375 0.6875,-0.46875 1.03125,-2.222656 1.03125,-5.265625 -1.28125,0.179687 -2.296875,0.53125 -3.046875,1.0625 -0.742187,0.53125 -1.109375,1.117187 -1.109375,1.75 z m 0,0"
           id="path60" />
      </g>
    </g>
  </g>
  <g
     fill="#4caf50"
     fill-opacity="1"
     id="g69"
     transform="translate(-37.5,-163.25391)">
    <g
       transform="translate(285.78125,213.56601)"
       id="g68">
      <g
         id="g67">
        <path
           d="m 9.78125,-28.46875 c 2.695312,0 4.734375,0.386719 6.109375,1.15625 1.382813,0.761719 2.382813,2.152344 3,4.171875 0.625,2.011719 0.9375,4.996094 0.9375,8.953125 0,5.480469 -0.71875,9.3125 -2.15625,11.5 C 16.242188,-0.5 13.613281,0.59375 9.78125,0.59375 8.84375,0.59375 6.140625,0.394531 1.671875,0 v -27.828125 c 3.75,-0.425781 6.453125,-0.640625 8.109375,-0.640625 z m 1.96875,4.421875 c -2.148438,0 -3.496094,0.04297 -4.046875,0.125 -0.542969,0.08594 -0.8125,0.324219 -0.8125,0.71875 V -4.59375 c 0,0.273438 0.164063,0.433594 0.5,0.484375 0.332031,0.042969 1.007813,0.0625 2.03125,0.0625 1.03125,0 1.753906,-0.050781 2.171875,-0.15625 0.425781,-0.113281 0.816406,-0.3125 1.171875,-0.59375 0.363281,-0.28125 0.601563,-0.832031 0.71875,-1.65625 0.25,-1.582031 0.375,-4.023437 0.375,-7.328125 0,-6.84375 -0.703125,-10.265625 -2.109375,-10.265625 z m 0,0"
           id="path66" />
      </g>
    </g>
  </g>
  <g
     fill="#4caf50"
     fill-opacity="1"
     id="g72"
     transform="translate(-37.5,-163.25391)">
    <g
       transform="translate(306.93778,213.56601)"
       id="g71">
      <g
         id="g70">
        <path
           d="m 8.40625,0.59375 c -2.636719,0 -4.46875,-0.710938 -5.5,-2.140625 -1.023438,-1.4375 -1.53125,-4.007813 -1.53125,-7.71875 0,-2.664063 0.234375,-4.695313 0.703125,-6.09375 0.46875,-1.394531 1.175781,-2.34375 2.125,-2.84375 0.957031,-0.507813 2.359375,-0.765625 4.203125,-0.765625 1.851562,0 3.253906,0.261719 4.203125,0.78125 0.957031,0.511719 1.65625,1.476562 2.09375,2.890625 0.445313,1.40625 0.671875,3.40625 0.671875,6 0,0.148437 0,0.292969 0,0.4375 0,0.148437 -0.292969,0.28125 -0.875,0.40625 -0.574219,0.125 -1.265625,0.1875 -2.078125,0.1875 h -5.71875 c 0.050781,2.898437 0.265625,4.542969 0.640625,4.9375 0.21875,0.1875 0.570312,0.28125 1.0625,0.28125 3.238281,0 5.453125,-0.15625 6.640625,-0.46875 0.05078,-0.03125 0.08594,-0.046875 0.109375,-0.046875 C 15.332031,-3.601562 15.472656,-3.5 15.578125,-3.25 15.691406,-3.007812 15.75,-2.429688 15.75,-1.515625 15.75,-0.597656 15.550781,-0.09375 15.15625,0 14.144531,0.394531 11.894531,0.59375 8.40625,0.59375 Z M 6.703125,-14.125 v 2.890625 h 3.75 C 10.347656,-14.097656 10.0625,-15.53125 9.59375,-15.53125 c -0.835938,0 -1.527344,0.125 -2.078125,0.375 -0.542969,0.25 -0.8125,0.59375 -0.8125,1.03125 z m 0,0"
           id="path69" />
      </g>
    </g>
  </g>
  <g
     fill="#4caf50"
     fill-opacity="1"
     id="g75"
     transform="translate(-37.5,-163.25391)">
    <g
       transform="translate(323.75927,213.56601)"
       id="g74">
      <g
         id="g73">
        <path
           d="m 0.78125,-18.5 c 0,-0.3125 0.445312,-0.46875 1.34375,-0.46875 0.90625,0 1.742188,0.0625 2.515625,0.1875 0.78125,0.117188 1.1875,0.246094 1.21875,0.390625 l 3.296875,13.875 2.890625,-13.875 c 0.09375,-0.382813 0.484375,-0.578125 1.171875,-0.578125 0.695312,0 1.28125,0.02344 1.75,0.0625 1.132812,0.125 1.679688,0.296875 1.640625,0.515625 L 16.5625,-18.3125 11.9375,0 C 11.832031,0.394531 11.351562,0.59375 10.5,0.59375 9.65625,0.59375 8.753906,0.53125 7.796875,0.40625 6.847656,0.28125 6.347656,0.144531 6.296875,0 L 0.8125,-18.3125 v -0.07813 C 0.789062,-18.429688 0.78125,-18.46875 0.78125,-18.5 Z m 0,0"
           id="path72" />
      </g>
    </g>
  </g>
</svg>
